<svg width="27" height="22" viewBox="0 0 27 22" fill="none" xmlns="http://www.w3.org/2000/svg">
<path d="M7.21429 0C5.95685 0 4.79613 0.313878 3.73214 0.941634C2.66815 1.55037 1.81696 2.37786 1.17857 3.42412C0.559524 4.47039 0.25 5.61176 0.25 6.84825C0.25 7.89451 0.636905 8.97882 1.41071 10.1012C1.77827 10.6528 2.15551 11.0999 2.54241 11.4423L13.25 22L24.3058 11.0999C24.596 10.7955 24.8668 10.4721 25.1183 10.1297C25.4472 9.65413 25.7083 9.16904 25.9018 8.67445C26.1339 8.04669 26.25 7.43796 26.25 6.84825C26.25 5.61176 25.9308 4.47039 25.2924 3.42412C24.6734 2.37786 23.8318 1.55037 22.7679 0.941634C21.7039 0.313878 20.5432 0 19.2857 0C17.0417 0 15.0298 0.894077 13.25 2.68223C11.4702 0.894077 9.45833 0 7.21429 0ZM7.21429 1.8262C7.85268 1.8262 8.52009 1.96887 9.21652 2.25422C9.77753 2.46347 10.3482 2.75832 10.9286 3.13878C11.3348 3.42412 11.7314 3.72849 12.1183 4.05188L12.5536 4.4799L13.25 5.25032L13.9464 4.4799L14.3817 4.05188C14.7686 3.72849 15.1652 3.42412 15.5714 3.13878C16.1518 2.75832 16.7225 2.46347 17.2835 2.25422C17.9799 1.96887 18.6473 1.8262 19.2857 1.8262C20.2143 1.8262 21.0655 2.05447 21.8393 2.51102C22.6324 2.96757 23.2515 3.58582 23.6964 4.36576C24.1607 5.12668 24.3929 5.95417 24.3929 6.84825C24.3929 7.26675 24.2381 7.76135 23.9286 8.33204C23.7158 8.75054 23.4449 9.17856 23.1161 9.61608L22.6518 10.1582L13.25 19.4034L3.55804 9.87289C3.34524 9.60657 3.14211 9.34025 2.94866 9.07393C2.69717 8.71249 2.50372 8.35106 2.3683 7.98962C2.1942 7.57112 2.10714 7.19066 2.10714 6.84825C2.10714 5.95417 2.32961 5.12668 2.77455 4.36576C3.23884 3.58582 3.85789 2.96757 4.6317 2.51102C5.42485 2.05447 6.28571 1.8262 7.21429 1.8262Z" fill="white"/>
</svg>
