<svg width="21" height="24" viewBox="0 0 21 24" fill="none" xmlns="http://www.w3.org/2000/svg">
<path d="M10.5 0C9.69021 0 8.93691 0.211538 8.24011 0.634615C7.54331 1.03846 6.98776 1.59615 6.57345 2.30769C6.17797 3.01923 5.98023 3.78846 5.98023 4.61538V5.53846H1.51695L1.46045 6.40385L0.5 24H20.5L19.5395 6.40385L19.4831 5.53846H15.0198V4.61538C15.0198 3.78846 14.8126 3.01923 14.3983 2.30769C14.0028 1.59615 13.4567 1.03846 12.7599 0.634615C12.0631 0.211538 11.3098 0 10.5 0ZM10.5 1.84615C11.2533 1.84615 11.8936 2.11538 12.4209 2.65385C12.9482 3.19231 13.2119 3.84615 13.2119 4.61538V5.53846H7.78814V4.61538C7.78814 3.84615 8.05179 3.19231 8.5791 2.65385C9.1064 2.11538 9.7467 1.84615 10.5 1.84615ZM3.21186 7.38462H5.98023V10.1538H7.78814V7.38462H13.2119V10.1538H15.0198V7.38462H17.7881L18.5791 22.1538H2.4209L3.21186 7.38462Z" fill="white"/>
</svg>
