<svg width="20" height="22" viewBox="0 0 20 22" fill="none" xmlns="http://www.w3.org/2000/svg">
<path d="M10 0C8.72917 0 7.55208 0.3125 6.46875 0.9375C5.40625 1.5625 4.5625 2.41667 3.9375 3.5C3.3125 4.5625 3 5.72917 3 7C3 8.1875 3.27083 9.29167 3.8125 10.3125C4.375 11.3333 5.13542 12.1667 6.09375 12.8125C4.90625 13.3333 3.84375 14.0521 2.90625 14.9688C1.98958 15.8854 1.28125 16.9375 0.78125 18.125C0.260417 19.3542 0 20.6458 0 22H2C2 20.5417 2.35417 19.2083 3.0625 18C3.79167 16.7708 4.76042 15.8021 5.96875 15.0938C7.19792 14.3646 8.54167 14 10 14C11.4583 14 12.7917 14.3646 14 15.0938C15.2292 15.8021 16.1979 16.7708 16.9062 18C17.6354 19.2083 18 20.5417 18 22H20C20 20.6458 19.7396 19.3542 19.2188 18.125C18.7188 16.9375 18 15.8854 17.0625 14.9688C16.1458 14.0521 15.0938 13.3333 13.9062 12.8125C14.8646 12.1667 15.6146 11.3333 16.1562 10.3125C16.7188 9.29167 17 8.1875 17 7C17 5.72917 16.6875 4.5625 16.0625 3.5C15.4375 2.41667 14.5833 1.5625 13.5 0.9375C12.4375 0.3125 11.2708 0 10 0ZM10 2C10.9167 2 11.75 2.22917 12.5 2.6875C13.2708 3.125 13.875 3.72917 14.3125 4.5C14.7708 5.25 15 6.08333 15 7C15 7.91667 14.7708 8.76042 14.3125 9.53125C13.875 10.2812 13.2708 10.8854 12.5 11.3438C11.75 11.7812 10.9167 12 10 12C9.08333 12 8.23958 11.7812 7.46875 11.3438C6.71875 10.8854 6.11458 10.2812 5.65625 9.53125C5.21875 8.76042 5 7.91667 5 7C5 6.08333 5.21875 5.25 5.65625 4.5C6.11458 3.72917 6.71875 3.125 7.46875 2.6875C8.23958 2.22917 9.08333 2 10 2Z" fill="white"/>
</svg>
